<?xml version="1.0" standalone="no"?>
<!DOCTYPE svg PUBLIC "-//W3C//DTD SVG 20010904//EN"
 "http://www.w3.org/TR/2001/REC-SVG-20010904/DTD/svg10.dtd">
<svg version="1.0" xmlns="http://www.w3.org/2000/svg"
 width="932.000000pt" height="932.000000pt" viewBox="0 0 932.000000 932.000000"
 preserveAspectRatio="xMidYMid meet">
<metadata>
Created by potrace 1.11, written by Peter Selinger 2001-2013
</metadata>
<g transform="translate(0.000000,932.000000) scale(0.100000,-0.100000)"
fill="#000000" stroke="none">
<path d="M4370 9300 c-138 -25 -335 -122 -444 -219 -22 -20 -36 -29 -31 -21 5
10 1 8 -13 -4 -12 -10 -19 -23 -16 -28 3 -4 2 -7 -3 -6 -4 2 -9 -1 -10 -5 -1
-4 -21 -29 -44 -55 -124 -140 -221 -389 -220 -565 l0 -69 -77 -34 c-128 -57
-315 -160 -377 -206 -5 -4 -56 -41 -112 -82 -124 -91 -168 -128 -265 -223 -27
-26 -48 -41 -48 -35 0 7 5 12 10 12 6 0 10 5 10 12 0 6 -11 1 -25 -12 -25 -24
-35 -47 -13 -34 7 4 8 3 4 -4 -4 -6 -13 -9 -21 -6 -8 3 -18 -4 -25 -18 -11
-22 -10 -22 4 -4 9 11 16 15 16 10 0 -6 -12 -22 -27 -35 -63 -57 -220 -253
-297 -370 -16 -24 -37 -55 -46 -69 -16 -24 -57 -97 -117 -210 -40 -74 -117
-261 -149 -357 -37 -113 -102 -370 -108 -428 -3 -28 -7 -75 -10 -105 -4 -30
-8 -90 -10 -134 -3 -50 -9 -82 -17 -87 -11 -6 -11 -9 1 -14 12 -4 14 -22 10
-98 -3 -50 -7 -1095 -9 -2322 l-2 -2230 21 -80 c79 -293 180 -478 359 -656
105 -105 171 -154 281 -212 121 -63 221 -101 336 -128 l99 -23 1495 -1 c1361
0 1750 4 1880 21 88 11 166 36 270 87 136 65 192 100 260 157 30 26 65 52 78
59 12 7 20 16 17 22 -4 5 -3 9 2 8 19 -3 33 2 33 12 0 5 -5 7 -12 3 -7 -4 -8
-3 -4 5 4 6 10 9 14 7 4 -2 13 2 20 10 7 8 10 14 7 14 -3 0 4 10 16 23 128
132 241 357 308 612 14 54 15 4824 1 4910 -5 33 -12 71 -15 85 -3 14 -8 41
-11 60 -4 19 -8 42 -9 50 -74 399 -257 817 -498 1135 -61 80 -81 104 -169 200
-27 29 -48 59 -48 67 0 19 -34 50 -50 46 -7 -2 -15 3 -18 11 -3 9 0 11 8 6 9
-5 11 -4 6 4 -4 6 -12 9 -17 6 -5 -4 -22 6 -38 22 -196 194 -349 298 -751 511
l-75 40 -2 52 c-8 280 -154 553 -391 733 -115 87 -270 156 -397 176 -73 11
-462 12 -525 1z m481 -229 c275 -46 495 -245 580 -526 15 -47 20 -113 9 -120
-5 -3 -43 3 -82 14 -72 20 -187 44 -260 55 -21 3 -53 8 -70 11 -77 12 -154 16
-333 21 -104 2 -195 6 -202 9 -7 2 -15 1 -17 -4 -3 -4 -27 -8 -53 -9 -26 -1
-64 -4 -83 -7 -19 -2 -57 -7 -85 -10 -68 -7 -107 -14 -191 -31 -39 -9 -77 -16
-85 -18 -8 -1 -40 -10 -73 -20 -77 -23 -89 -18 -81 36 18 121 99 280 194 381
120 126 243 192 415 221 85 14 325 13 417 -3z m54 -785 c513 -62 976 -264
1360 -590 66 -57 232 -222 283 -282 164 -193 296 -407 410 -664 72 -162 146
-450 167 -645 3 -27 7 -70 11 -95 3 -25 7 -175 9 -334 2 -158 6 -291 9 -293 3
-3 2 -13 -3 -22 -10 -20 -8 -92 3 -110 6 -9 5 -12 -1 -8 -5 3 -9 -10 -9 -33 0
-24 4 -36 11 -33 5 3 4 0 -2 -8 -7 -7 -13 -20 -13 -28 0 -14 1 -14 10 -1 5 8
10 10 10 4 0 -6 -3 -14 -7 -17 -3 -4 -8 -21 -10 -38 -2 -21 1 -28 9 -23 7 5 8
3 3 -6 -4 -7 -8 -130 -7 -274 0 -289 -4 -318 -55 -352 -38 -25 -78 -21 -117
13 -31 27 -35 57 -41 276 -3 124 -1 167 8 167 9 0 9 2 1 8 -8 5 -13 169 -18
577 -3 314 -8 590 -11 615 -13 121 -14 126 -56 280 -80 294 -229 596 -411 832
-72 93 -279 306 -352 363 -22 17 -51 39 -65 51 -59 48 -214 146 -312 198 -255
135 -542 227 -792 255 -85 9 -544 7 -617 -4 -66 -9 -173 -30 -210 -40 -3 -1
-18 -5 -35 -9 -146 -37 -362 -122 -505 -198 -89 -47 -233 -137 -276 -171 -39
-31 -189 -152 -202 -162 -19 -14 -42 -38 -77 -76 -16 -19 -54 -61 -84 -94
-124 -138 -297 -396 -364 -545 -14 -30 -34 -76 -45 -101 -30 -67 -79 -217
-109 -334 -45 -178 -54 -271 -57 -637 0 -71 -5 -128 -10 -128 -4 0 -3 -6 3
-14 8 -10 9 -16 1 -21 -7 -4 -7 -12 0 -25 7 -13 6 -20 -3 -24 -9 -5 -9 -7 1
-12 6 -3 10 -10 6 -15 -11 -18 -13 -69 -3 -69 6 0 7 -6 3 -12 -5 -7 -9 -200
-11 -428 -1 -228 -4 -424 -7 -435 -2 -11 -5 -26 -5 -33 -1 -7 -13 -24 -27 -37
-40 -37 -89 -33 -139 10 l-39 34 -1 156 c0 85 2 155 6 155 9 0 4 65 -6 72 -7
5 -7 8 0 8 6 0 11 157 11 448 2 433 9 755 19 817 3 17 8 46 11 65 41 254 178
620 320 856 72 119 187 281 249 350 50 56 225 231 276 276 352 306 860 536
1288 584 31 4 81 9 111 13 67 8 436 6 505 -3z m1704 -590 c-3 -3 -11 5 -18 17
-13 21 -12 21 5 5 10 -10 16 -20 13 -22z m-2244 -1006 c6 -1 12 -2 15 -1 14 5
138 5 135 0 -5 -7 33 -5 40 3 3 3 22 2 41 -2 18 -4 34 -5 34 -1 0 10 31 8 48
-3 6 -4 12 -2 12 3 0 6 5 11 11 11 5 0 7 -4 4 -10 -4 -7 3 -7 19 0 19 7 26 6
26 -3 0 -7 3 -8 8 -2 8 11 74 17 67 6 -2 -4 6 -6 18 -5 12 1 22 3 22 4 0 7 67
4 71 -2 3 -5 11 -5 17 -1 7 4 72 8 145 8 l133 1 47 -51 c46 -48 47 -52 46
-107 -1 -31 -5 -62 -9 -69 -5 -8 -4 -10 3 -5 9 5 9 1 3 -17 -7 -17 -6 -29 2
-37 8 -9 8 -11 1 -7 -14 8 -16 -43 -2 -60 6 -7 5 -14 -2 -18 -5 -3 -10 -11
-10 -16 0 -6 6 -7 13 -3 9 6 9 4 1 -7 -6 -8 -9 -27 -7 -44 12 -84 -26 -193
-72 -203 -11 -2 -289 -6 -617 -9 l-598 -5 -27 32 c-14 18 -33 39 -41 47 -14
13 -23 111 -12 118 3 2 5 90 5 195 l-1 191 47 38 47 37 153 -2 c85 0 159 -2
164 -4z m2117 -2109 c27 -9 41 -22 56 -52 23 -46 20 -65 -16 -108 l-27 -31
-1858 -3 -1857 -3 -19 20 c-29 32 -42 63 -34 82 4 12 3 15 -6 10 -8 -6 -7 2 3
23 35 66 -22 62 918 68 469 3 854 6 855 7 1 1 439 1 975 0 733 -1 982 -4 1010
-13z m-106 -593 c67 -47 100 -81 134 -137 l33 -53 0 -1216 c-1 -873 -4 -1225
-12 -1245 -23 -58 -92 -167 -132 -207 -49 -49 -138 -108 -183 -121 -17 -5 -76
-12 -131 -15 -174 -10 -1809 -12 -1822 -2 -6 5 -14 5 -16 1 -7 -11 -99 -9
-117 2 -9 5 -11 4 -6 -3 5 -9 -3 -10 -31 -6 -44 7 -46 7 -53 4 -19 -8 -90 -5
-90 4 0 8 -3 8 -8 1 -4 -6 -16 -11 -27 -11 -11 0 -23 5 -27 11 -5 7 -8 7 -8 0
0 -15 -706 -11 -777 4 -73 15 -203 84 -203 108 0 5 -14 19 -30 32 -59 43 -118
154 -129 241 -5 36 -9 594 -10 1240 -2 1168 -2 1175 19 1215 25 49 92 120 146
154 l41 27 1700 -1 1700 0 39 -27z"/>
<path d="M4608 8093 c12 -2 32 -2 45 0 12 2 2 4 -23 4 -25 0 -35 -2 -22 -4z"/>
<path d="M6942 5230 c0 -14 2 -19 5 -12 2 6 2 18 0 25 -3 6 -5 1 -5 -13z"/>
<path d="M6941 5154 c0 -11 3 -14 6 -6 3 7 2 16 -1 19 -3 4 -6 -2 -5 -13z"/>
<path d="M6941 5114 c0 -11 3 -14 6 -6 3 7 2 16 -1 19 -3 4 -6 -2 -5 -13z"/>
<path d="M1945 9256 c-135 -44 -533 -215 -643 -277 -117 -66 -138 -103 -128
-232 4 -45 9 -89 11 -97 2 -8 6 -40 10 -70 3 -30 7 -66 9 -80 3 -14 7 -47 11
-75 6 -53 12 -91 20 -152 16 -107 25 -173 30 -218 3 -27 8 -61 10 -75 7 -41
13 -79 29 -195 9 -60 18 -121 20 -135 2 -14 7 -46 10 -71 4 -25 8 -57 11 -70
2 -13 6 -42 9 -64 3 -22 12 -85 20 -140 8 -55 17 -116 20 -135 2 -19 9 -64 15
-100 5 -36 13 -85 16 -110 3 -25 8 -56 10 -70 8 -49 37 -245 41 -275 2 -16 6
-46 9 -65 3 -19 8 -51 10 -70 2 -19 7 -52 11 -73 3 -20 7 -47 9 -60 2 -12 8
-56 14 -97 6 -41 14 -93 16 -115 22 -169 49 -299 70 -331 31 -48 100 -30 110
29 3 18 7 45 10 61 2 16 9 34 15 40 5 5 10 15 10 21 0 5 -5 3 -10 -5 -8 -12
-10 -11 -10 5 0 12 5 26 11 32 7 7 8 17 1 29 -5 11 -8 46 -7 79 2 33 5 135 7
227 1 93 6 168 11 168 12 0 8 35 -5 49 -7 8 -8 11 -3 8 6 -3 11 64 13 191 3
182 7 283 12 290 7 7 5 29 -3 40 -5 6 -6 12 -1 12 5 0 10 93 11 208 2 218 6
292 17 310 3 6 2 13 -3 16 -10 7 -10 221 1 231 7 7 106 -115 277 -339 58 -75
108 -133 112 -129 3 5 40 53 80 108 142 194 384 444 581 603 65 52 118 100
118 106 0 28 -662 879 -800 1029 -43 46 -49 50 -100 52 -37 2 -78 -4 -125 -19z"/>
<path d="M7144 9261 c-60 -37 -844 -1028 -844 -1066 0 -6 53 -54 117 -106 120
-96 330 -299 439 -424 33 -38 98 -119 144 -180 45 -60 83 -111 85 -113 1 -1
42 50 91 114 172 225 286 364 294 359 7 -4 7 -93 0 -120 -1 -5 -2 -12 0 -15 6
-17 5 -88 -2 -102 -5 -10 -5 -18 -1 -18 11 0 14 -61 16 -282 1 -102 6 -184 10
-181 5 3 4 -4 -3 -16 -9 -17 -9 -26 1 -37 7 -9 8 -14 1 -14 -6 0 -9 -10 -6
-22 17 -73 26 -456 11 -465 -6 -3 -2 -12 7 -19 11 -8 13 -14 7 -19 -13 -7 -15
-45 -3 -45 4 0 8 -60 9 -132 1 -73 2 -133 3 -133 1 0 2 -19 3 -42 2 -24 -1
-43 -5 -43 -5 0 -8 -7 -8 -15 0 -8 5 -15 10 -15 12 0 9 -22 -5 -33 -6 -6 -6
-10 3 -14 15 -6 16 -33 1 -33 -8 0 -7 -6 2 -17 10 -11 10 -14 2 -9 -7 4 -13 2
-13 -3 0 -6 5 -11 10 -11 6 0 10 -9 10 -20 0 -11 -4 -20 -10 -20 -5 0 -10 -5
-10 -11 0 -5 5 -7 10 -4 6 3 10 3 11 -2 8 -92 19 -131 44 -147 35 -23 72 -6
92 41 15 38 35 136 48 243 4 30 8 57 10 60 2 3 6 32 9 65 4 33 9 69 11 80 3
11 7 36 9 55 2 19 9 64 15 100 5 36 13 85 16 110 3 25 15 104 25 175 11 72 22
148 25 170 3 23 7 50 9 60 2 11 7 45 11 75 4 30 9 62 10 70 2 8 8 51 15 95 6
44 13 91 15 105 2 14 7 45 10 70 6 47 9 65 20 140 9 64 13 91 19 125 3 17 14
98 26 180 11 83 23 161 25 175 9 61 15 108 20 145 8 61 14 106 20 150 11 66
13 84 30 220 9 72 18 141 20 155 16 87 17 187 2 222 -25 60 -110 113 -342 213
-60 26 -138 61 -173 76 -34 16 -65 29 -68 29 -3 0 -20 7 -37 15 -65 30 -184
66 -237 71 -44 4 -61 1 -86 -15z"/>
<path d="M1151 8774 c0 -11 3 -14 6 -6 3 7 2 16 -1 19 -3 4 -6 -2 -5 -13z"/>
<path d="M8111 8774 c0 -11 3 -14 6 -6 3 7 2 16 -1 19 -3 4 -6 -2 -5 -13z"/>
</g>
</svg>
