<?xml version="1.0" standalone="no"?>
<!DOCTYPE svg PUBLIC "-//W3C//DTD SVG 20010904//EN"
 "http://www.w3.org/TR/2001/REC-SVG-20010904/DTD/svg10.dtd">
<svg version="1.0" xmlns="http://www.w3.org/2000/svg"
 width="932.000000pt" height="932.000000pt" viewBox="0 0 932.000000 932.000000"
 preserveAspectRatio="xMidYMid meet">
<metadata>
Created by potrace 1.11, written by Peter Selinger 2001-2013
</metadata>
<g transform="translate(0.000000,932.000000) scale(0.100000,-0.100000)"
fill="#000000" stroke="none">
<path d="M4355 9296 c-156 -36 -366 -143 -439 -225 -10 -11 -22 -18 -26 -16
-8 5 -26 -14 -45 -45 -5 -9 -31 -43 -56 -74 -109 -135 -188 -338 -197 -504
l-5 -103 -141 -68 c-286 -137 -492 -286 -742 -535 -242 -242 -374 -422 -515
-699 -103 -202 -164 -367 -223 -602 -68 -273 -67 -235 -73 -2840 l-5 -2341 36
-124 c61 -217 130 -360 246 -503 121 -151 253 -258 417 -337 128 -63 210 -92
323 -117 80 -17 171 -18 1660 -18 1625 0 1745 3 1894 41 116 29 354 157 448
241 24 21 52 43 63 49 11 6 39 35 63 65 173 217 219 298 290 507 l47 137 3
2432 2 2432 -39 198 c-22 109 -56 254 -76 323 -99 339 -261 650 -480 921 -99
123 -327 353 -440 444 -162 130 -250 184 -597 369 l-68 36 0 74 c0 123 -47
274 -131 423 -51 89 -184 234 -275 299 -73 52 -225 126 -309 149 -82 24 -520
31 -610 11z m526 -231 c275 -57 503 -287 560 -563 19 -89 15 -90 -128 -53
-413 107 -938 107 -1356 -1 -85 -21 -122 -27 -130 -19 -7 7 -7 27 2 68 58 261
265 486 513 558 123 35 395 41 539 10z m104 -789 c445 -68 877 -256 1222 -533
302 -241 577 -597 725 -937 130 -297 186 -539 208 -891 12 -195 13 -1342 1
-1405 -22 -109 -161 -125 -191 -21 -7 23 -14 313 -20 792 -5 429 -14 794 -20
845 -32 256 -170 627 -329 883 -169 273 -400 510 -676 695 -221 148 -554 285
-827 341 -240 48 -699 44 -928 -9 -410 -95 -761 -278 -1095 -574 -41 -36 -208
-232 -272 -318 -80 -108 -169 -258 -228 -381 -88 -182 -175 -474 -195 -654 -6
-51 -15 -429 -20 -839 -6 -479 -13 -758 -20 -781 -21 -72 -90 -89 -158 -39
l-42 30 1 318 c1 656 16 1312 33 1402 75 415 263 830 521 1155 76 96 283 304
380 382 187 151 445 301 673 392 206 82 490 148 707 164 116 8 450 -2 550 -17z
m290 -1626 l46 -45 -3 -235 c-3 -253 -9 -283 -61 -312 -17 -10 -158 -14 -627
-16 l-605 -3 -37 47 -38 47 0 236 c0 258 -2 249 62 299 l36 28 591 0 590 -1
46 -45z m843 -2060 l364 0 34 -34 c44 -44 46 -88 7 -133 l-28 -32 -1858 -3
-1858 -4 -30 35 c-38 47 -39 90 -1 132 l28 31 1069 8 c589 5 1259 6 1489 4
231 -2 583 -4 784 -4z m255 -599 c58 -40 105 -88 139 -140 l28 -45 0 -1230 0
-1231 -47 -82 c-58 -104 -143 -190 -230 -234 l-67 -34 -535 -7 c-762 -9 -2270
-8 -2437 1 -130 8 -148 11 -214 42 -88 40 -188 142 -240 245 l-35 68 -3 1227
-4 1228 26 43 c26 44 97 118 151 156 l30 21 1698 1 1698 0 42 -29z"/>
<path d="M1930 9251 c-243 -84 -649 -272 -708 -328 -56 -54 -60 -82 -33 -298
59 -479 384 -2698 406 -2771 16 -54 26 -67 61 -78 34 -10 63 22 74 81 5 28 14
217 20 420 6 202 15 469 20 593 6 124 13 389 16 590 4 201 10 371 14 379 8 14
81 -74 290 -347 51 -67 97 -119 100 -115 4 5 48 62 97 128 156 208 358 416
561 579 67 54 122 104 122 111 0 33 -770 1013 -832 1058 -44 32 -111 32 -208
-2z"/>
<path d="M7154 9266 c-34 -15 -131 -129 -412 -485 -252 -319 -442 -571 -442
-586 0 -6 51 -52 113 -102 214 -170 412 -375 579 -598 50 -66 92 -121 93 -123
1 -1 38 44 81 100 167 220 296 378 304 373 4 -3 8 -71 8 -152 0 -170 9 -497
21 -793 8 -220 8 -219 16 -505 9 -358 18 -530 31 -578 3 -9 18 -24 33 -31 40
-21 71 -2 93 55 21 59 348 2276 409 2779 27 221 24 249 -33 303 -87 83 -727
358 -831 357 -18 -1 -46 -7 -63 -14z"/>
<path d="M1151 8774 c0 -11 3 -14 6 -6 3 7 2 16 -1 19 -3 4 -6 -2 -5 -13z"/>
</g>
</svg>
